<svg width="134" height="30" viewBox="0 0 134 30" fill="none" xmlns="http://www.w3.org/2000/svg">
<rect x="0.5" y="0.5" width="133" height="29" rx="9.5" stroke="#01426A"/>
<path fill-rule="evenodd" clip-rule="evenodd" d="M30.33 10.5C30.205 10.5 30.075 10.55 29.98 10.645L29.065 11.56L30.94 13.435L31.855 12.52C32.05 12.325 32.05 12.01 31.855 11.815L30.685 10.645C30.585 10.545 30.46 10.5 30.33 10.5ZM28.53 13.51L28.99 13.97L24.46 18.5H24V18.04L28.53 13.51ZM23 17.625L28.53 12.095L30.405 13.97L24.875 19.5H23V17.625Z" fill="#01426A"/>
<path d="M44.2268 11.98V14.08H47.0468V15.412H44.2268V17.632H47.4068V19H42.5468V10.612H47.4068V11.98H44.2268ZM48.5015 15.652C48.5015 14.98 48.6335 14.384 48.8975 13.864C49.1695 13.344 49.5375 12.944 50.0015 12.664C50.4655 12.384 50.9815 12.244 51.5495 12.244C51.9815 12.244 52.3935 12.34 52.7855 12.532C53.1775 12.716 53.4895 12.964 53.7215 13.276V10.12H55.4255V19H53.7215V18.016C53.5135 18.344 53.2215 18.608 52.8455 18.808C52.4695 19.008 52.0335 19.108 51.5375 19.108C50.9775 19.108 50.4655 18.964 50.0015 18.676C49.5375 18.388 49.1695 17.984 48.8975 17.464C48.6335 16.936 48.5015 16.332 48.5015 15.652ZM53.7335 15.676C53.7335 15.268 53.6535 14.92 53.4935 14.632C53.3335 14.336 53.1175 14.112 52.8455 13.96C52.5735 13.8 52.2815 13.72 51.9695 13.72C51.6575 13.72 51.3695 13.796 51.1055 13.948C50.8415 14.1 50.6255 14.324 50.4575 14.62C50.2975 14.908 50.2175 15.252 50.2175 15.652C50.2175 16.052 50.2975 16.404 50.4575 16.708C50.6255 17.004 50.8415 17.232 51.1055 17.392C51.3775 17.552 51.6655 17.632 51.9695 17.632C52.2815 17.632 52.5735 17.556 52.8455 17.404C53.1175 17.244 53.3335 17.02 53.4935 16.732C53.6535 16.436 53.7335 16.084 53.7335 15.676ZM57.9183 11.56C57.6223 11.56 57.3743 11.468 57.1743 11.284C56.9823 11.092 56.8863 10.856 56.8863 10.576C56.8863 10.296 56.9823 10.064 57.1743 9.88C57.3743 9.688 57.6223 9.592 57.9183 9.592C58.2143 9.592 58.4583 9.688 58.6503 9.88C58.8503 10.064 58.9503 10.296 58.9503 10.576C58.9503 10.856 58.8503 11.092 58.6503 11.284C58.4583 11.468 58.2143 11.56 57.9183 11.56ZM58.7463 12.352V19H57.0663V12.352H58.7463ZM62.3621 13.732V16.948C62.3621 17.172 62.4141 17.336 62.5181 17.44C62.6301 17.536 62.8141 17.584 63.0701 17.584H63.8501V19H62.7941C61.3781 19 60.6701 18.312 60.6701 16.936V13.732H59.8781V12.352H60.6701V10.708H62.3621V12.352H63.8501V13.732H62.3621ZM64.6265 15.652C64.6265 14.98 64.7585 14.384 65.0225 13.864C65.2945 13.344 65.6585 12.944 66.1145 12.664C66.5785 12.384 67.0945 12.244 67.6625 12.244C68.1585 12.244 68.5905 12.344 68.9585 12.544C69.3345 12.744 69.6345 12.996 69.8585 13.3V12.352H71.5505V19H69.8585V18.028C69.6425 18.34 69.3425 18.6 68.9585 18.808C68.5825 19.008 68.1465 19.108 67.6505 19.108C67.0905 19.108 66.5785 18.964 66.1145 18.676C65.6585 18.388 65.2945 17.984 65.0225 17.464C64.7585 16.936 64.6265 16.332 64.6265 15.652ZM69.8585 15.676C69.8585 15.268 69.7785 14.92 69.6185 14.632C69.4585 14.336 69.2425 14.112 68.9705 13.96C68.6985 13.8 68.4065 13.72 68.0945 13.72C67.7825 13.72 67.4945 13.796 67.2305 13.948C66.9665 14.1 66.7505 14.324 66.5825 14.62C66.4225 14.908 66.3425 15.252 66.3425 15.652C66.3425 16.052 66.4225 16.404 66.5825 16.708C66.7505 17.004 66.9665 17.232 67.2305 17.392C67.5025 17.552 67.7905 17.632 68.0945 17.632C68.4065 17.632 68.6985 17.556 68.9705 17.404C69.2425 17.244 69.4585 17.02 69.6185 16.732C69.7785 16.436 69.8585 16.084 69.8585 15.676ZM74.8713 13.384C75.0873 13.032 75.3673 12.756 75.7113 12.556C76.0633 12.356 76.4633 12.256 76.9113 12.256V14.02H76.4673C75.9393 14.02 75.5393 14.144 75.2673 14.392C75.0033 14.64 74.8713 15.072 74.8713 15.688V19H73.1913V12.352H74.8713V13.384ZM82.5822 13.312C82.7982 13.008 83.0942 12.756 83.4702 12.556C83.8542 12.348 84.2902 12.244 84.7782 12.244C85.3462 12.244 85.8582 12.384 86.3142 12.664C86.7782 12.944 87.1422 13.344 87.4062 13.864C87.6782 14.376 87.8142 14.972 87.8142 15.652C87.8142 16.332 87.6782 16.936 87.4062 17.464C87.1422 17.984 86.7782 18.388 86.3142 18.676C85.8582 18.964 85.3462 19.108 84.7782 19.108C84.2902 19.108 83.8582 19.008 83.4822 18.808C83.1142 18.608 82.8142 18.356 82.5822 18.052V22.168H80.9022V12.352H82.5822V13.312ZM86.0982 15.652C86.0982 15.252 86.0142 14.908 85.8462 14.62C85.6862 14.324 85.4702 14.1 85.1982 13.948C84.9342 13.796 84.6462 13.72 84.3342 13.72C84.0302 13.72 83.7422 13.8 83.4702 13.96C83.2062 14.112 82.9902 14.336 82.8222 14.632C82.6622 14.928 82.5822 15.276 82.5822 15.676C82.5822 16.076 82.6622 16.424 82.8222 16.72C82.9902 17.016 83.2062 17.244 83.4702 17.404C83.7422 17.556 84.0302 17.632 84.3342 17.632C84.6462 17.632 84.9342 17.552 85.1982 17.392C85.4702 17.232 85.6862 17.004 85.8462 16.708C86.0142 16.412 86.0982 16.06 86.0982 15.652ZM95.215 15.532C95.215 15.772 95.199 15.988 95.167 16.18H90.307C90.347 16.66 90.515 17.036 90.811 17.308C91.107 17.58 91.471 17.716 91.903 17.716C92.527 17.716 92.971 17.448 93.235 16.912H95.047C94.855 17.552 94.487 18.08 93.943 18.496C93.399 18.904 92.731 19.108 91.939 19.108C91.299 19.108 90.723 18.968 90.211 18.688C89.707 18.4 89.311 17.996 89.023 17.476C88.743 16.956 88.603 16.356 88.603 15.676C88.603 14.988 88.743 14.384 89.023 13.864C89.303 13.344 89.695 12.944 90.199 12.664C90.703 12.384 91.283 12.244 91.939 12.244C92.571 12.244 93.135 12.38 93.631 12.652C94.135 12.924 94.523 13.312 94.795 13.816C95.075 14.312 95.215 14.884 95.215 15.532ZM93.475 15.052C93.467 14.62 93.311 14.276 93.007 14.02C92.703 13.756 92.331 13.624 91.891 13.624C91.475 13.624 91.123 13.752 90.835 14.008C90.555 14.256 90.383 14.604 90.319 15.052H93.475ZM98.1213 13.384C98.3373 13.032 98.6173 12.756 98.9613 12.556C99.3133 12.356 99.7133 12.256 100.161 12.256V14.02H99.7173C99.1893 14.02 98.7893 14.144 98.5173 14.392C98.2533 14.64 98.1213 15.072 98.1213 15.688V19H96.4413V12.352H98.1213V13.384ZM104.341 13.732H103.177V19H101.473V13.732H100.717V12.352H101.473V12.016C101.473 11.2 101.705 10.6 102.169 10.216C102.633 9.832 103.333 9.652 104.269 9.676V11.092C103.861 11.084 103.577 11.152 103.417 11.296C103.257 11.44 103.177 11.7 103.177 12.076V12.352H104.341V13.732ZM106.282 11.56C105.986 11.56 105.738 11.468 105.538 11.284C105.346 11.092 105.25 10.856 105.25 10.576C105.25 10.296 105.346 10.064 105.538 9.88C105.738 9.688 105.986 9.592 106.282 9.592C106.578 9.592 106.822 9.688 107.014 9.88C107.214 10.064 107.314 10.296 107.314 10.576C107.314 10.856 107.214 11.092 107.014 11.284C106.822 11.468 106.578 11.56 106.282 11.56ZM107.11 12.352V19H105.43V12.352H107.11ZM110.449 10.12V19H108.769V10.12H110.449Z" fill="#01426A"/>
</svg>
