<svg width="134" height="30" viewBox="0 0 134 30" fill="none" xmlns="http://www.w3.org/2000/svg">
<rect x="0.5" y="0.5" width="133" height="29" rx="9.5" stroke="#01426A"/>
<path fill-rule="evenodd" clip-rule="evenodd" d="M45.83 10.5C45.705 10.5 45.575 10.55 45.48 10.645L44.565 11.56L46.44 13.435L47.355 12.52C47.55 12.325 47.55 12.01 47.355 11.815L46.185 10.645C46.085 10.545 45.96 10.5 45.83 10.5ZM44.03 13.51L44.49 13.97L39.96 18.5H39.5V18.04L44.03 13.51ZM38.5 17.625L44.03 12.095L45.905 13.97L40.375 19.5H38.5V17.625Z" fill="#01426A"/>
<path d="M61.26 11.98V14.08H64.08V15.412H61.26V17.632H64.44V19H59.58V10.612H64.44V11.98H61.26ZM65.5347 15.652C65.5347 14.98 65.6667 14.384 65.9307 13.864C66.2027 13.344 66.5707 12.944 67.0347 12.664C67.4987 12.384 68.0147 12.244 68.5827 12.244C69.0147 12.244 69.4267 12.34 69.8187 12.532C70.2107 12.716 70.5227 12.964 70.7547 13.276V10.12H72.4587V19H70.7547V18.016C70.5467 18.344 70.2547 18.608 69.8787 18.808C69.5027 19.008 69.0667 19.108 68.5707 19.108C68.0107 19.108 67.4987 18.964 67.0347 18.676C66.5707 18.388 66.2027 17.984 65.9307 17.464C65.6667 16.936 65.5347 16.332 65.5347 15.652ZM70.7667 15.676C70.7667 15.268 70.6867 14.92 70.5267 14.632C70.3667 14.336 70.1507 14.112 69.8787 13.96C69.6067 13.8 69.3147 13.72 69.0027 13.72C68.6907 13.72 68.4027 13.796 68.1387 13.948C67.8747 14.1 67.6587 14.324 67.4907 14.62C67.3307 14.908 67.2507 15.252 67.2507 15.652C67.2507 16.052 67.3307 16.404 67.4907 16.708C67.6587 17.004 67.8747 17.232 68.1387 17.392C68.4107 17.552 68.6987 17.632 69.0027 17.632C69.3147 17.632 69.6067 17.556 69.8787 17.404C70.1507 17.244 70.3667 17.02 70.5267 16.732C70.6867 16.436 70.7667 16.084 70.7667 15.676ZM74.9515 11.56C74.6555 11.56 74.4075 11.468 74.2075 11.284C74.0155 11.092 73.9195 10.856 73.9195 10.576C73.9195 10.296 74.0155 10.064 74.2075 9.88C74.4075 9.688 74.6555 9.592 74.9515 9.592C75.2475 9.592 75.4915 9.688 75.6835 9.88C75.8835 10.064 75.9835 10.296 75.9835 10.576C75.9835 10.856 75.8835 11.092 75.6835 11.284C75.4915 11.468 75.2475 11.56 74.9515 11.56ZM75.7795 12.352V19H74.0995V12.352H75.7795ZM79.3953 13.732V16.948C79.3953 17.172 79.4473 17.336 79.5513 17.44C79.6633 17.536 79.8473 17.584 80.1033 17.584H80.8833V19H79.8273C78.4113 19 77.7033 18.312 77.7033 16.936V13.732H76.9113V12.352H77.7033V10.708H79.3953V12.352H80.8833V13.732H79.3953ZM81.6597 15.652C81.6597 14.98 81.7917 14.384 82.0557 13.864C82.3277 13.344 82.6917 12.944 83.1477 12.664C83.6117 12.384 84.1277 12.244 84.6957 12.244C85.1917 12.244 85.6237 12.344 85.9917 12.544C86.3677 12.744 86.6677 12.996 86.8917 13.3V12.352H88.5837V19H86.8917V18.028C86.6757 18.34 86.3757 18.6 85.9917 18.808C85.6157 19.008 85.1797 19.108 84.6837 19.108C84.1237 19.108 83.6117 18.964 83.1477 18.676C82.6917 18.388 82.3277 17.984 82.0557 17.464C81.7917 16.936 81.6597 16.332 81.6597 15.652ZM86.8917 15.676C86.8917 15.268 86.8117 14.92 86.6517 14.632C86.4917 14.336 86.2757 14.112 86.0037 13.96C85.7317 13.8 85.4397 13.72 85.1277 13.72C84.8157 13.72 84.5277 13.796 84.2637 13.948C83.9997 14.1 83.7837 14.324 83.6157 14.62C83.4557 14.908 83.3757 15.252 83.3757 15.652C83.3757 16.052 83.4557 16.404 83.6157 16.708C83.7837 17.004 83.9997 17.232 84.2637 17.392C84.5357 17.552 84.8237 17.632 85.1277 17.632C85.4397 17.632 85.7317 17.556 86.0037 17.404C86.2757 17.244 86.4917 17.02 86.6517 16.732C86.8117 16.436 86.8917 16.084 86.8917 15.676ZM91.9045 13.384C92.1205 13.032 92.4005 12.756 92.7445 12.556C93.0965 12.356 93.4965 12.256 93.9445 12.256V14.02H93.5005C92.9725 14.02 92.5725 14.144 92.3005 14.392C92.0365 14.64 91.9045 15.072 91.9045 15.688V19H90.2245V12.352H91.9045V13.384Z" fill="#01426A"/>
</svg>
